<svg width="24" height="24" viewBox="0 0 24 24" fill="none" xmlns="http://www.w3.org/2000/svg"><path d="M5 18h-.75H5zM5 5h-.75H5zm2-2v.75V3zm7 0v-.75V3zm0 17.75a.75.75 0 000-1.5v1.5zM7 20v.75V20zm8.25-5a.75.75 0 001.5 0h-1.5zM16 5h.75H16zM8.75 6a.75.75 0 10-1.5 0h1.5zm-1.5 1a.75.75 0 001.5 0h-1.5zm1.5 9a.75.75 0 00-1.5 0h1.5zm-1.5 1a.75.75 0 001.5 0h-1.5zm6.5-11a.75.75 0 00-1.5 0h1.5zm-1.5 1a.75.75 0 001.5 0h-1.5zm2.15 9.3l.45-.6-.45.6zm-1.6-1.2l-.45.6.45-.6zm-1.7.6l-.6-.45.6.45zm.2 1.4l-.45.6.45-.6zm2.8 2.1l-.45.6.45-.6zm-.35 1.8a.75.75 0 001.5 0h-1.5zm4 0a.75.75 0 001.5 0h-1.5zm.457-9.793l-.53.53.53-.53zM16 9l.53-.53a.75.75 0 00-1.28.53H16zM5.75 18V5h-1.5v13h1.5zM7 3.75h7v-1.5H7v1.5zm7 15.5H7v1.5h7v-1.5zM16.75 15V5h-1.5v10h1.5zm-11-10c0-.69.56-1.25 1.25-1.25v-1.5A2.75 2.75 0 004.25 5h1.5zm-1.5 13A2.75 2.75 0 007 20.75v-1.5c-.69 0-1.25-.56-1.25-1.25h-1.5zM14 3.75c.69 0 1.25.56 1.25 1.25h1.5A2.75 2.75 0 0014 2.25v1.5zM7.25 6v1h1.5V6h-1.5zm0 10v1h1.5v-1h-1.5zm5-10v1h1.5V6h-1.5zm-1.75 7.25a1.75 1.75 0 01-1.75-1.75h-1.5a3.25 3.25 0 003.25 3.25v-1.5zM8.75 11.5c0-.966.784-1.75 1.75-1.75v-1.5a3.25 3.25 0 00-3.25 3.25h1.5zm1.75-1.75c.966 0 1.75.784 1.75 1.75h1.5a3.25 3.25 0 00-3.25-3.25v1.5zm1.75 1.75a1.75 1.75 0 01-1.75 1.75v1.5a3.25 3.25 0 003.25-3.25h-1.5zm2.6 4.2l-1.6-1.2-.9 1.2 1.6 1.2.9-1.2zm-4.05-.85l-.3.4 1.2.9.3-.4-1.2-.9zm.05 2.85l2.8 2.1.9-1.2-2.8-2.1-.9 1.2zm2.9 2.3v1h1.5v-1h-1.5zm5.5 1v-9.086h-1.5V21h1.5zm-.513-10.323L16.53 8.47l-1.06 1.06 2.207 2.207 1.06-1.06zM15.25 9v6.5h1.5V9h-1.5zm-1.6 10.8a.25.25 0 01.1.2h1.5c0-.55-.26-1.07-.7-1.4l-.9 1.2zm-3.15-4.55a1.75 1.75 0 00.35 2.45l.9-1.2a.25.25 0 01-.05-.35l-1.2-.9zm8.75-3.336c0-.464-.184-.909-.513-1.237l-1.06 1.06a.25.25 0 01.073.177h1.5zm-6 2.586a1.75 1.75 0 00-2.45.35l1.2.9a.25.25 0 01.35-.05l.9-1.2zm.7 2.4c1.154.865 2.8.042 2.8-1.4h-1.5a.25.25 0 01-.4.2l-.9 1.2z" fill="#000"/></svg>