<svg width="24" height="24" viewBox="0 0 24 24" fill="none" xmlns="http://www.w3.org/2000/svg"><path d="M12 17.75a.75.75 0 000-1.5v1.5zm-1-1.5a.75.75 0 000 1.5v-1.5zM15.25 6v12h1.5V6h-1.5zM14 19.25H9v1.5h5v-1.5zM7.75 18V6h-1.5v12h1.5zM14 3.25H9v1.5h5v-1.5zm-5 16c-.69 0-1.25-.56-1.25-1.25h-1.5A2.75 2.75 0 009 20.75v-1.5zM15.25 18c0 .69-.56 1.25-1.25 1.25v1.5A2.75 2.75 0 0016.75 18h-1.5zm1.5-12A2.75 2.75 0 0014 3.25v1.5c.69 0 1.25.56 1.25 1.25h1.5zm-9 0c0-.69.56-1.25 1.25-1.25v-1.5A2.75 2.75 0 006.25 6h1.5zM12 16.25h-1v1.5h1v-1.5z" fill="#000"/></svg>