<svg width="24" height="24" viewBox="0 0 24 24" fill="none" xmlns="http://www.w3.org/2000/svg"><path d="M19 5.284h-.75.75zm0 13.977h.75H19zM5 5.284h.75H5zm0 13.977h-.75H5zM7.463 5.186l.564.494-.564-.494zm.301-.345L7.2 4.347l.564.494zm1.472 0l-.565.494.565-.494zM9.375 5l.564-.494L9.375 5zm5.25 0l-.564-.494.564.494zm.14-.159l.564.494-.565-.494zm1.47 0l.565-.494-.564.494zm.302.345l-.564.494.564-.494zM7.86 19.634l-.372.651.372-.65zm-.473-.27l.372-.651-.372.651zm1.988.136l-.372-.651.372.651zm-.235.134l.372.651-.372-.65zm5.72 0l-.372.651.372-.65zm-.235-.134l.372-.651-.372.651zm1.988-.136l-.372-.651.372.651zm-.473.27l.372.651-.372-.65zm1.48 0l-.648.378.648-.378zm-4.745-.134l-.372-.651.372.651zm-6.495.134l-.648-.378.648.378zM17.684 5.009l.687.3-.687-.3zm-11.368 0l-.687.3.687-.3zM12 13a.75.75 0 000-1.5V13zm-4-1.5A.75.75 0 108 13v-1.5zm8-1.5a.75.75 0 000-1.5V10zM8 8.5A.75.75 0 008 10V8.5zm6 7.5a.75.75 0 000-1.5V16zm-6-1.5A.75.75 0 108 16v-1.5zm10.25-9.216v13.977h1.5V5.284h-1.5zm-14 0v13.977h1.5V5.284h-1.5zm3.777.396l.302-.345-1.13-.988-.3.345 1.128.988zm.644-.345l.14.159 1.128-.988-.139-.159-1.129.988zm6.518.159l.14-.16-1.13-.987-.138.16 1.128.987zm.482-.16l.302.346 1.129-.988-.302-.345-1.129.988zm-7.439 13.65l-.473-.271-.744 1.302.473.27.744-1.302zm.77-.135l-.234.134.744 1.302.235-.134-.744-1.302zm6.23.134l-.235-.134-.744 1.302.235.134.744-1.302zm1.009-.27l-.473.27.744 1.302.473-.27-.744-1.302zm2.027.543a1.49 1.49 0 00-2.027-.543l.744 1.302-.004.001h-.003l-.003-.001-.003-.003 1.296-.756zm-3.78 1.03a2.04 2.04 0 002.024 0l-.744-1.303a.54.54 0 01-.536 0l-.744 1.302zm-1.24-.135a1.014 1.014 0 011.005 0l.744-1.302a2.514 2.514 0 00-2.494 0l.744 1.302zm-2.495 0a2.514 2.514 0 002.494 0l-.744-1.302a1.014 1.014 0 01-1.006 0l-.744 1.302zm-1.006 0a1.014 1.014 0 011.006 0l.744-1.302a2.514 2.514 0 00-2.494 0l.744 1.302zm-2.26.134a2.04 2.04 0 002.025 0l-.744-1.302a.54.54 0 01-.536 0l-.744 1.302zm-.459-.273l-.003.003a.01.01 0 01-.003.001H7.02a.015.015 0 01-.004 0l.744-1.303a1.49 1.49 0 00-2.027.543l1.296.756zM15.973 5.68a1.437 1.437 0 002.398-.37l-1.374-.602a.07.07 0 01.048-.037.07.07 0 01.057.02l-1.129.989zm-.644-.345a.228.228 0 01.342 0l1.13-.988a1.728 1.728 0 00-2.601 0l1.129.988zm-3.018.159c.762.87 2.116.87 2.878 0l-1.128-.988a.413.413 0 01-.622 0l-1.128.988zm-.622 0a.413.413 0 01.622 0l1.128-.988a1.913 1.913 0 00-2.878 0l1.128.988zm-2.878 0c.762.87 2.116.87 2.878 0l-1.128-.988a.413.413 0 01-.622 0l-1.128.988zm-.482-.16a.228.228 0 01.342 0l1.13-.987a1.728 1.728 0 00-2.601 0l1.129.988zm-2.7-.025a1.437 1.437 0 002.398.37l-1.129-.987a.07.07 0 01.057-.021.07.07 0 01.048.037L5.63 5.31zM18.25 19.261v.007a.048.048 0 01.008-.014l.005-.005-.006.003a.025.025 0 01-.006 0l.006.002.014.008.002.002-.005-.008-1.296.756c.767 1.314 2.778.77 2.778-.751h-1.5zm1.5-13.977c0-1.557-2.13-2.002-2.753-.576l1.374.601c.002-.006.001 0-.007.008a.106.106 0 01-.03.022c-.022.01-.033.007-.034.007 0 0-.012-.003-.027-.02a.106.106 0 01-.02-.032c-.004-.012-.003-.016-.003-.01h1.5zm-14 0c0-.006 0-.002-.004.01a.106.106 0 01-.019.032c-.015.017-.027.02-.027.02s-.012.002-.033-.007a.106.106 0 01-.03-.022c-.01-.009-.01-.014-.008-.008l1.374-.601c-.624-1.426-2.753-.98-2.753.576h1.5zm-1.5 13.977c0 1.521 2.011 2.065 2.778.75l-1.296-.755a.06.06 0 01-.005.008l.002-.002a.047.047 0 01.014-.008l.006-.001-.006-.001-.006-.003.005.005a.05.05 0 01.008.014v-.008h-1.5zM12 11.5H8V13h4v-1.5zm4-3H8V10h8V8.5zm-2 6H8V16h6v-1.5z" fill="#000"/></svg>