<svg width="24" height="24" viewBox="0 0 24 24" fill="none" xmlns="http://www.w3.org/2000/svg"><path d="M19 12h.75a.75.75 0 00-.75-.75V12zM5 12v-.75a.75.75 0 00-.75.75H5zm9 7h-.75c0 .414.336.75.75.75V19zm-4 0v.75a.75.75 0 00.75-.75H10zm1.463-13.658l-.402-.633.402.633zm1.074 0l-.403.632.403-.632zm7.566 4.814l.402-.632-.402.632zm-16.206 0l-.402-.632.402.632zM16 5v-.75a.75.75 0 00-.75.75H16zm2 0h.75a.75.75 0 00-.75-.75V5zm0 3.808l-.41.628a.75.75 0 001.16-.628H18zM16 7.5h-.75c0 .253.128.49.34.628L16 7.5zm2.25 4.5v5h1.5v-5h-1.5zm-12.5 5v-5h-1.5v5h1.5zM17 18.25h-3v1.5h3v-1.5zm-2.25.75v-3h-1.5v3h1.5zM10 18.25H7v1.5h3v-1.5zm3-4h-2v1.5h2v-1.5zM9.25 16v3h1.5v-3h-1.5zm5.5 0A1.75 1.75 0 0013 14.25v1.5a.25.25 0 01.25.25h1.5zM11 14.25A1.75 1.75 0 009.25 16h1.5a.25.25 0 01.25-.25v-1.5zM4.25 17A2.75 2.75 0 007 19.75v-1.5c-.69 0-1.25-.56-1.25-1.25h-1.5zm14 0c0 .69-.56 1.25-1.25 1.25v1.5A2.75 2.75 0 0019.75 17h-1.5zM16 18.25H8v1.5h8v-1.5zm3.566-7H4.434v1.5h15.132v-1.5zM4.3 10.79l7.566-4.816-.806-1.265-7.565 4.815.805 1.265zm7.834-4.816L19.7 10.79l.806-1.265L12.94 4.71l-.806 1.265zm-.268 0a.25.25 0 01.268 0l.806-1.265a1.75 1.75 0 00-1.88 0l.806 1.265zm7.7 6.776c1.75 0 2.417-2.287.94-3.226l-.806 1.265a.234.234 0 01.106.124.265.265 0 010 .157.265.265 0 01-.085.132.234.234 0 01-.155.048v1.5zm-15.132-1.5a.234.234 0 01-.155-.048.264.264 0 01-.085-.132.265.265 0 010-.157.234.234 0 01.106-.124l-.805-1.265c-1.478.94-.812 3.226.939 3.226v-1.5zM16 5.75h2v-1.5h-2v1.5zM17.25 5v3.808h1.5V5h-1.5zm1.16 3.18l-2-1.308-.82 1.256 2 1.308.82-1.255zm-1.66-.68V5h-1.5v2.5h1.5zM19 11.25H5v1.5h14v-1.5z" fill="#000"/></svg>