<svg width="24" height="24" viewBox="0 0 24 24" fill="none" xmlns="http://www.w3.org/2000/svg">
<path d="M12.8535 8.35355C13.0488 8.15829 13.0488 7.84171 12.8535 7.64645C12.6583 7.45118 12.3417 7.45118 12.1464 7.64645L12.8535 8.35355ZM9.70708 10.7929L10.0606 11.1464L10.0606 11.1464L9.70708 10.7929ZM9.70708 12.2071L10.0606 11.8536L10.0606 11.8536L9.70708 12.2071ZM12.1464 15.3536C12.3417 15.5488 12.6583 15.5488 12.8535 15.3536C13.0488 15.1583 13.0488 14.8417 12.8535 14.6464L12.1464 15.3536ZM12.1464 7.64645L9.35352 10.4393L10.0606 11.1464L12.8535 8.35355L12.1464 7.64645ZM9.35352 12.5607L12.1464 15.3536L12.8535 14.6464L10.0606 11.8536L9.35352 12.5607ZM9.35352 10.4393C8.76774 11.0251 8.76774 11.9749 9.35352 12.5607L10.0606 11.8536C9.86537 11.6583 9.86537 11.3417 10.0606 11.1464L9.35352 10.4393Z" fill="white"/>
</svg>
