<svg width="24" height="24" viewBox="0 0 24 24" fill="none" xmlns="http://www.w3.org/2000/svg"><path d="M19 10h.5v-.207l-.146-.147L19 10zm-5-5l.354-.354-.147-.146H14V5zm-4 7.75a.5.5 0 000-1v1zm-2-1a.5.5 0 000 1v-1zm3.5-2a.5.5 0 000-1v1zm-3.5-1a.5.5 0 000 1v-1zm6 7a.5.5 0 000-1v1zm-6-1a.5.5 0 000 1v-1zm9 3.75H7v1h10v-1zM5.5 17V7h-1v10h1zm13-7v7h1v-7h-1zM14 4.5H7v1h7v-1zm-7 14A1.5 1.5 0 015.5 17h-1A2.5 2.5 0 007 19.5v-1zm10 1a2.5 2.5 0 002.5-2.5h-1a1.5 1.5 0 01-1.5 1.5v1zM5.5 7A1.5 1.5 0 017 5.5v-1A2.5 2.5 0 004.5 7h1zM19 9.5h-3v1h3v-1zM14.5 8V5h-1v3h1zM16 9.5A1.5 1.5 0 0114.5 8h-1a2.5 2.5 0 002.5 2.5v-1zm-6 2.25H8v1h2v-1zm1.5-3H8v1h3.5v-1zm2.5 6H8v1h6v-1zm-.354-9.396l5 5 .708-.708-5-5-.708.708z" fill="#000"/></svg>