<svg width="24" height="24" viewBox="0 0 24 24" fill="none" xmlns="http://www.w3.org/2000/svg">
<path d="M10.3536 7.64645C10.1583 7.45118 9.84171 7.45118 9.64645 7.64645C9.45118 7.84171 9.45118 8.15829 9.64645 8.35355L10.3536 7.64645ZM12.7929 10.7929L12.4393 11.1464V11.1464L12.7929 10.7929ZM12.7929 12.2071L12.4393 11.8536V11.8536L12.7929 12.2071ZM9.64645 14.6464C9.45118 14.8417 9.45118 15.1583 9.64645 15.3536C9.84171 15.5488 10.1583 15.5488 10.3536 15.3536L9.64645 14.6464ZM9.64645 8.35355L12.4393 11.1464L13.1464 10.4393L10.3536 7.64645L9.64645 8.35355ZM12.4393 11.8536L9.64645 14.6464L10.3536 15.3536L13.1464 12.5607L12.4393 11.8536ZM12.4393 11.1464C12.6346 11.3417 12.6346 11.6583 12.4393 11.8536L13.1464 12.5607C13.7322 11.9749 13.7322 11.0251 13.1464 10.4393L12.4393 11.1464Z" fill="white"/>
</svg>
