<svg width="24" height="24" viewBox="0 0 24 24" fill="none" xmlns="http://www.w3.org/2000/svg"><path d="M18.354 13.354a.5.5 0 00-.708-.708l.708.708zm-5.647 4.939l-.353-.354.353.354zm-1.414 0l.353-.354-.353.354zm-4.94-5.647a.5.5 0 00-.707.708l.708-.708zM11.5 18a.5.5 0 001 0h-1zm1-13a.5.5 0 00-1 0h1zm5.146 7.646l-5.292 5.293.707.707 5.293-5.292-.708-.708zm-6 5.293l-5.292-5.293-.708.708 5.293 5.292.707-.707zm.708 0a.5.5 0 01-.708 0l-.707.707a1.5 1.5 0 002.122 0l-.707-.707zM12.5 18V5h-1v13h1z" fill="#000"/></svg>