<svg width="24" height="24" viewBox="0 0 24 24" fill="none" xmlns="http://www.w3.org/2000/svg"><path d="M19 19.26V5.285c0-.744-1.018-.957-1.316-.275a.687.687 0 01-1.147.177l-.301-.345a.978.978 0 00-1.472 0L14.625 5c-.463.53-1.287.53-1.75 0a1.163 1.163 0 00-1.75 0c-.463.53-1.287.53-1.75 0l-.14-.159a.978.978 0 00-1.47 0l-.302.345a.687.687 0 01-1.147-.177C6.018 4.327 5 4.539 5 5.284v13.977c0 .756 1 1.026 1.38.373a.74.74 0 011.007-.27l.473.27a1.29 1.29 0 001.28 0l.235-.134a1.763 1.763 0 011.75 0c.542.31 1.208.31 1.75 0a1.763 1.763 0 011.75 0l.235.134a1.29 1.29 0 001.28 0l.473-.27a.74.74 0 011.007.27c.38.653 1.38.383 1.38-.373zM10 9H8m8 6h-2" stroke="#000" stroke-width="1.5" stroke-linecap="round" stroke-linejoin="round"/><path d="M6 12h12" stroke="#000" stroke-width="1.5" stroke-linecap="round" stroke-linejoin="round" stroke-dasharray="1 2"/></svg>