<svg width="24" height="24" viewBox="0 0 24 24" fill="none" xmlns="http://www.w3.org/2000/svg"><path d="M15 5.25a.75.75 0 000 1.5v-1.5zm-8 1.5a.75.75 0 000-1.5v1.5zM20 12h.75a.75.75 0 00-.75-.75V12zm0 4v.75a.75.75 0 00.75-.75H20zM12.47 5.53a.75.75 0 101.06-1.06l-1.06 1.06zm-.763-1.823l-.53.53.53-.53zm-1.414 0l.53.53-.53-.53zM8.47 4.47a.75.75 0 001.06 1.06L8.47 4.47zM11.75 4a.75.75 0 00-1.5 0h1.5zm-1.5 3a.75.75 0 001.5 0h-1.5zm7 1v1h1.5V8h-1.5zm.75.25H4v1.5h14v-1.5zM4.75 9V8h-1.5v1h1.5zM16 5.25h-1v1.5h1v-1.5zm-9 0H6v1.5h1v-1.5zM18.75 8A2.75 2.75 0 0016 5.25v1.5c.69 0 1.25.56 1.25 1.25h1.5zm-14 0c0-.69.56-1.25 1.25-1.25v-1.5A2.75 2.75 0 003.25 8h1.5zm14.5 3v6h1.5v-6h-1.5zM18 18.25H6v1.5h12v-1.5zM4.75 17V9h-1.5v8h1.5zM6 18.25c-.69 0-1.25-.56-1.25-1.25h-1.5A2.75 2.75 0 006 19.75v-1.5zM19.25 17c0 .69-.56 1.25-1.25 1.25v1.5A2.75 2.75 0 0020.75 17h-1.5zm1.5-6A2.75 2.75 0 0018 8.25v1.5c.69 0 1.25.56 1.25 1.25h1.5zm-1.5 1v4h1.5v-4h-1.5zm.75 3.25h-2v1.5h2v-1.5zm0-4h-2v1.5h2v-1.5zm-2 4c-.69 0-1.25-.56-1.25-1.25h-1.5A2.75 2.75 0 0018 16.75v-1.5zM16.75 14c0-.69.56-1.25 1.25-1.25v-1.5A2.75 2.75 0 0015.25 14h1.5zm-3.22-9.53l-1.293-1.293-1.06 1.06L12.47 5.53l1.06-1.06zM9.763 3.177L8.47 4.47l1.06 1.06 1.293-1.293-1.06-1.06zm2.474 0a1.75 1.75 0 00-2.474 0l1.06 1.06a.25.25 0 01.354 0l1.06-1.06zM10.25 4v3h1.5V4h-1.5z" fill="#000"/></svg>