<svg width="24" height="24" viewBox="0 0 24 24" fill="none" xmlns="http://www.w3.org/2000/svg"><path d="M18 10v-.75.75zm0 8v-.75.75zm-3-8v.75V10zm-2 4h-.75.75zm2 4v.75V18zM12.25 7c0 .115-.113.421-.757.743-.6.3-1.48.507-2.493.507v1.5c1.196 0 2.315-.24 3.164-.665.803-.402 1.586-1.096 1.586-2.085h-1.5zM9 8.25c-1.013 0-1.894-.207-2.493-.507-.644-.322-.757-.628-.757-.743h-1.5c0 .99.783 1.683 1.586 2.085.849.424 1.968.665 3.164.665v-1.5zM5.75 7c0-.115.113-.421.757-.743.6-.3 1.48-.507 2.493-.507v-1.5c-1.196 0-2.315.24-3.164.665C5.033 5.317 4.25 6.011 4.25 7h1.5zM9 5.75c1.013 0 1.894.207 2.493.507.644.322.757.628.757.743h1.5c0-.99-.783-1.683-1.586-2.085-.849-.424-1.968-.665-3.164-.665v1.5zM12.25 16c0 .115-.113.421-.757.743-.6.3-1.48.507-2.493.507v1.5c1.196 0 2.315-.24 3.164-.665.803-.402 1.586-1.096 1.586-2.085h-1.5zM9 17.25c-1.013 0-1.894-.207-2.493-.507-.644-.322-.757-.628-.757-.743h-1.5c0 .99.783 1.683 1.586 2.085.849.424 1.968.665 3.164.665v-1.5zM12.25 13c0 .115-.113.421-.757.743-.6.3-1.48.507-2.493.507v1.5c1.196 0 2.315-.24 3.164-.665.803-.402 1.586-1.096 1.586-2.085h-1.5zM9 14.25c-1.013 0-1.894-.207-2.493-.507-.644-.322-.757-.628-.757-.743h-1.5c0 .99.783 1.683 1.586 2.085.849.424 1.968.665 3.164.665v-1.5zM12.25 10c0 .115-.113.421-.757.743-.6.3-1.48.507-2.493.507v1.5c1.196 0 2.315-.24 3.164-.665.803-.402 1.586-1.096 1.586-2.085h-1.5zM9 11.25c-1.013 0-1.894-.207-2.493-.507-.644-.322-.757-.628-.757-.743h-1.5c0 .99.783 1.683 1.586 2.085.849.424 1.968.665 3.164.665v-1.5zM12.25 7v9h1.5V7h-1.5zm-6.5 9V7h-1.5v9h1.5zM18 9.25c-.99 0-1.683.783-2.085 1.586-.424.849-.665 1.968-.665 3.164h1.5c0-1.013.207-1.894.507-2.493.322-.644.628-.757.743-.757v-1.5zM15.25 14c0 1.196.24 2.315.665 3.164.402.803 1.096 1.586 2.085 1.586v-1.5c-.115 0-.421-.113-.743-.757-.3-.6-.507-1.48-.507-2.493h-1.5zM18 18.75c.99 0 1.683-.783 2.085-1.586.424-.849.665-1.968.665-3.164h-1.5c0 1.013-.207 1.894-.507 2.493-.322.644-.628.757-.743.757v1.5zM20.75 14c0-1.196-.24-2.315-.665-3.164-.402-.803-1.096-1.586-2.085-1.586v1.5c.115 0 .421.113.743.757.3.6.507 1.48.507 2.493h1.5zM15 9.25c-.99 0-1.683.783-2.085 1.586-.424.849-.665 1.968-.665 3.164h1.5c0-1.013.207-1.894.507-2.493.322-.644.628-.757.743-.757v-1.5zM12.25 14c0 1.196.24 2.315.665 3.164.402.803 1.096 1.586 2.085 1.586v-1.5c-.115 0-.421-.113-.743-.757-.3-.6-.507-1.48-.507-2.493h-1.5zM18 9.25h-3v1.5h3v-1.5zm-3 9.5h3v-1.5h-3v1.5z" fill="#fff"/></svg>