<svg width="24" height="24" viewBox="0 0 24 24" fill="none" xmlns="http://www.w3.org/2000/svg"><path d="M9 10.5h.75a.75.75 0 00-.038-.237L9 10.5zm6 3h-.75c0 .08.013.16.039.237L15 13.5zm-5.25 0a.75.75 0 00-1.5 0h1.5zm4.597-3a.75.75 0 001.5 0h-1.5zM12.75 7a.75.75 0 00-1.5 0h1.5zm-1.5 10a.75.75 0 001.5 0h-1.5zm8-5A7.25 7.25 0 0112 19.25v1.5A8.75 8.75 0 0020.75 12h-1.5zM12 19.25A7.25 7.25 0 014.75 12h-1.5A8.75 8.75 0 0012 20.75v-1.5zM4.75 12A7.25 7.25 0 0112 4.75v-1.5A8.75 8.75 0 003.25 12h1.5zM12 4.75A7.25 7.25 0 0119.25 12h1.5A8.75 8.75 0 0012 3.25v1.5zM9 10.5c-.75 0-.75 0-.75.002v.004a.96.96 0 00.013.165c.012.08.033.183.072.3.08.238.23.53.51.81.565.565 1.54.969 3.155.969v-1.5c-1.384 0-1.91-.346-2.095-.53a.578.578 0 01-.157-.262l.001.009a.401.401 0 010 .022l.001.005v.005L9 10.5zm3 2.25c1.384 0 1.91.346 2.095.53.095.096.132.18.147.223.007.023.01.037.01.039l-.001-.009a.588.588 0 010-.022l-.001-.005v-.005L15 13.5c.75 0 .75 0 .75-.002v-.026a.9.9 0 00-.013-.143 1.722 1.722 0 00-.072-.3c-.08-.238-.23-.53-.51-.81-.565-.565-1.54-.969-3.155-.969v1.5zm2.289.987a.603.603 0 01-.017.472c-.07.15-.213.322-.452.49-.487.34-1.209.551-1.82.551v1.5c.889 0 1.917-.29 2.68-.823.386-.27.742-.63.954-1.09a2.1 2.1 0 00.077-1.574l-1.422.474zM12 15.25c-.621 0-1.206-.177-1.615-.48a1.503 1.503 0 01-.635-1.27h-1.5a3 3 0 001.24 2.473c.716.532 1.631.777 2.51.777v-1.5zm-2.288-4.987a.603.603 0 01.016-.472c.07-.15.213-.322.452-.49.487-.34 1.209-.551 1.82-.551v-1.5c-.889 0-1.917.29-2.68.823-.386.27-.742.63-.954 1.09a2.1 2.1 0 00-.078 1.574l1.424-.474zM12 8.75c.623 0 1.238.178 1.676.49.418.297.67.708.67 1.26h1.5c0-1.104-.544-1.944-1.3-2.482-.735-.524-1.669-.768-2.546-.768v1.5zM11.25 7v10h1.5V7h-1.5z" fill="#000"/></svg>