<svg width="24" height="24" viewBox="0 0 24 24" fill="none" xmlns="http://www.w3.org/2000/svg"><path d="M12 11.75a.75.75 0 000-1.5v1.5zm-5-1.5a.75.75 0 000 1.5v-1.5zm4 3.5a.75.75 0 000-1.5v1.5zm-4-1.5a.75.75 0 000 1.5v-1.5zm7.816-1.874a.75.75 0 101.298-.752l-1.298.752zm1.298 4a.75.75 0 10-1.298-.752l1.298.752zM19.25 12A7.25 7.25 0 0112 19.25v1.5A8.75 8.75 0 0020.75 12h-1.5zM12 19.25A7.25 7.25 0 014.75 12h-1.5A8.75 8.75 0 0012 20.75v-1.5zM4.75 12A7.25 7.25 0 0112 4.75v-1.5A8.75 8.75 0 003.25 12h1.5zM12 4.75A7.25 7.25 0 0119.25 12h1.5A8.75 8.75 0 0012 3.25v1.5zm0 5.5H7v1.5h5v-1.5zm-1 2H7v1.5h4v-1.5zm1 2.5c-.965 0-1.786-.282-2.35-.75-.55-.455-.9-1.117-.9-2h-1.5c0 1.327.546 2.414 1.443 3.156.883.73 2.063 1.094 3.307 1.094v-1.5zM8.75 12c0-.883.35-1.545.9-2 .564-.468 1.385-.75 2.35-.75v-1.5c-1.244 0-2.424.363-3.307 1.094-.897.742-1.443 1.83-1.443 3.156h1.5zM12 9.25c1.423 0 2.338.3 2.816 1.126l1.298-.752C15.21 8.06 13.538 7.75 12 7.75v1.5zm2.816 4.374c-.478.827-1.393 1.126-2.816 1.126v1.5c1.538 0 3.209-.31 4.114-1.874l-1.298-.752z" fill="#000"/></svg>