<svg width="24" height="24" viewBox="0 0 24 24" fill="none" xmlns="http://www.w3.org/2000/svg"><mask id="a" maskUnits="userSpaceOnUse" x="3" y="3" width="18" height="18"><circle cx="12" cy="12" r="8" fill="#C4C4C4" stroke="#000" stroke-width="1.5"/></mask><g mask="url(#a)" stroke="#fff" stroke-width="1.5" stroke-linecap="round" stroke-linejoin="round"><path d="M5.38 15.241l-.25.5a1 1 0 00-.101.547l.368 3.684a1 1 0 001.127.891l5.608-.747a1 1 0 00.868-.991v-.963a1 1 0 00-.051-.316l-.605-1.815A1 1 0 0011 15.428l-1.879.805a1 1 0 01-1.1-.212l-1.041-1.04a1 1 0 00-1.601.26zm-4-11.001l-.25.501a1 1 0 00-.101.547l.368 3.684a1 1 0 001.127.891l5.608-.747A1 1 0 009 8.124v-.8a2 2 0 00-.103-.632l-.553-1.661A1 1 0 007 4.428l-1.879.805a1 1 0 01-1.1-.212L2.98 3.981a1 1 0 00-1.601.26zm19.375 9.207l.228-2.274c.011-.114.003-.23-.025-.342L19.372 4.49a1 1 0 00-1.584-.547L15.3 5.878a1 1 0 00-.167 1.414l.857 1.07a1 1 0 01-.013 1.265l-.61.733a1 1 0 00.768 1.64H17a1 1 0 01.8.4l1.16 1.547c.547.73 1.705.407 1.795-.5z"/></g><path d="M20 12a8 8 0 11-16 0 8 8 0 0116 0z" stroke="#fff" stroke-width="1.5"/></svg>