<svg width="24" height="24" viewBox="0 0 24 24" fill="none" xmlns="http://www.w3.org/2000/svg"><path d="M16.75 6a.75.75 0 00-1.5 0h1.5zM16 13v.75a.75.75 0 00.75-.75H16zm-8-.75a.75.75 0 000 1.5v-1.5zm3.03-2.22a.75.75 0 10-1.06-1.06l1.06 1.06zm-3.323 2.263l-.53-.53.53.53zm0 1.414l.53-.53-.53.53zM9.97 17.03a.75.75 0 001.06-1.06l-1.06 1.06zM15.25 6v7h1.5V6h-1.5zM8 13.75h8v-1.5H8v1.5zm1.97-4.78l-2.793 2.793 1.06 1.06 2.793-2.793-1.06-1.06zm-2.793 5.267L9.97 17.03l1.06-1.06-2.793-2.793-1.06 1.06zm0-2.474a1.75 1.75 0 000 2.474l1.06-1.06a.25.25 0 010-.354l-1.06-1.06z" fill="#FB695E"/></svg>