<svg width="24" height="24" viewBox="0 0 24 24" fill="none" xmlns="http://www.w3.org/2000/svg"><path d="M14.347 10.5a.75.75 0 001.5 0h-1.5zM9 16l-.53-.53a.75.75 0 00.767 1.242L9 16zm.5-4l-.696.278a.49.49 0 00.025.057L9.5 12zm5.737 4.712a.75.75 0 00-.474-1.423l.474 1.423zM12 12.75a.75.75 0 000-1.5v1.5zm-3.5-2a.75.75 0 000 1.5v-1.5zM19.25 12A7.25 7.25 0 0112 19.25v1.5A8.75 8.75 0 0020.75 12h-1.5zM12 19.25A7.25 7.25 0 014.75 12h-1.5A8.75 8.75 0 0012 20.75v-1.5zM4.75 12A7.25 7.25 0 0112 4.75v-1.5A8.75 8.75 0 003.25 12h1.5zM12 4.75A7.25 7.25 0 0119.25 12h1.5A8.75 8.75 0 0012 3.25v1.5zm0 4c.623 0 1.238.178 1.676.49.418.297.67.708.67 1.26h1.5c0-1.104-.545-1.944-1.3-2.482-.735-.524-1.669-.768-2.546-.768v1.5zm-2.47 7.78c.948-.948 1.141-2.106 1.091-3.014-.049-.893-.333-1.617-.45-1.851l-1.342.67c.043.086.259.612.295 1.264.035.637-.102 1.319-.654 1.87l1.06 1.061zm.666-4.809c-.399-.998-.172-1.706.221-2.179.432-.52 1.097-.792 1.583-.792v-1.5c-.94 0-2.025.477-2.736 1.333-.75.902-1.061 2.194-.46 3.695l1.392-.556zm4.567 3.568c-.304.1-.476.108-.579.098a.963.963 0 01-.349-.12c-.341-.171-.877-.517-1.835-.517v1.5c.542 0 .756.154 1.165.358.218.11.502.234.87.271.366.037.756-.019 1.202-.168l-.474-1.422zM12 14.75c-.826 0-1.634.137-2.225.268a12.627 12.627 0 00-.93.244l-.058.019-.016.005-.005.002h-.002L9 16l.237.712h.001a11.175 11.175 0 01.862-.23c.535-.119 1.226-.232 1.9-.232v-1.5zm0-3.5c-.59 0-.988-.103-1.492-.228-.521-.13-1.12-.272-2.008-.272v1.5c.704 0 1.162.107 1.647.228.502.125 1.06.272 1.853.272v-1.5z" fill="#000"/></svg>