<svg width="24" height="24" viewBox="0 0 24 24" fill="none" xmlns="http://www.w3.org/2000/svg"><path d="M17.884 16.574l-.246-.435.246.435zm-4.9 2.77l-.246-.436.246.435zm-1.968 0l-.246.435.246-.436zm-4.9-2.77l-.245.435.246-.435zM18.9 14.833h-.5.5zm0-5.666h-.5.5zm-1.016-1.741l-.246.435.246-.435zm-4.9-2.77l.246-.435-.246.436zM5.101 14.834h.5-.5zm0-5.666h-.5.5zm1.016-1.741l.246.435-.246-.435zm4.899-2.77l.246.436-.246-.435zm6.622 11.483l-4.9 2.769.492.87 4.9-2.768-.492-.871zm-6.376 2.769l-4.9-2.77-.492.871 4.9 2.77.492-.871zm8.138-4.075V9.167h-1v5.666h1zm-1.27-7.842l-4.9-2.77-.492.871 4.9 2.77.492-.871zM5.6 14.833V9.167h-1v5.666h1zm.763-6.972l4.899-2.769-.492-.87-4.9 2.769.493.87zM5.6 9.167c0-.54.29-1.04.762-1.306l-.493-.87A2.5 2.5 0 004.6 9.167h1zm13.799 0a2.5 2.5 0 00-1.27-2.176l-.492.87a1.5 1.5 0 01.762 1.306h1zM6.363 16.139a1.5 1.5 0 01-.762-1.306h-1a2.5 2.5 0 001.27 2.176l.492-.87zm6.375 2.769a1.5 1.5 0 01-1.476 0l-.492.87a2.5 2.5 0 002.46 0l-.492-.87zm5.392-1.899a2.5 2.5 0 001.27-2.176h-1a1.5 1.5 0 01-.762 1.306l.492.87zm-4.9-12.788a2.5 2.5 0 00-2.46 0l.492.871a1.5 1.5 0 011.476 0l.492-.87zM14.5 12a2.5 2.5 0 01-2.5 2.5v1a3.5 3.5 0 003.5-3.5h-1zM12 14.5A2.5 2.5 0 019.5 12h-1a3.5 3.5 0 003.5 3.5v-1zM9.5 12A2.5 2.5 0 0112 9.5v-1A3.5 3.5 0 008.5 12h1zM12 9.5a2.5 2.5 0 012.5 2.5h1A3.5 3.5 0 0012 8.5v1z" fill="#000"/></svg>