<svg width="24" height="24" viewBox="0 0 24 24" fill="none" xmlns="http://www.w3.org/2000/svg"><path d="M9.6 8.55a.75.75 0 10-1.2.9l1.2-.9zm6 .9a.75.75 0 10-1.2-.9l1.2.9zM11.25 17a.75.75 0 001.5 0h-1.5zM14 13.75a.75.75 0 000-1.5v1.5zm-4-1.5a.75.75 0 000 1.5v-1.5zm4 3.5a.75.75 0 000-1.5v1.5zm-4-1.5a.75.75 0 000 1.5v-1.5zM19.25 12A7.25 7.25 0 0112 19.25v1.5A8.75 8.75 0 0020.75 12h-1.5zM12 19.25A7.25 7.25 0 014.75 12h-1.5A8.75 8.75 0 0012 20.75v-1.5zM4.75 12A7.25 7.25 0 0112 4.75v-1.5A8.75 8.75 0 003.25 12h1.5zM12 4.75A7.25 7.25 0 0119.25 12h1.5A8.75 8.75 0 0012 3.25v1.5zm-3.6 4.7l3 4 1.2-.9-3-4-1.2.9zm4.2 4l3-4-1.2-.9-3 4 1.2.9zM11.25 13v4h1.5v-4h-1.5zm2.75-.75h-4v1.5h4v-1.5zm0 2h-4v1.5h4v-1.5z" fill="#000"/></svg>